<?xml version="1.0" standalone="no"?>
<!DOCTYPE svg PUBLIC "-//W3C//DTD SVG 1.1//EN" "http://www.w3.org/Graphics/SVG/1.1/DTD/svg11.dtd" >
<svg xmlns="http://www.w3.org/2000/svg">
<metadata>Generated by IcoMoon</metadata>
<defs>
<font id="icomoon" horiz-adv-x="1024">
<font-face units-per-em="1024" ascent="960" descent="-64" />
<missing-glyph horiz-adv-x="1024" />
<glyph unicode="&#x20;" horiz-adv-x="512" d="" />
<glyph unicode="&#xe900;" glyph-name="f-safetyCenter" d="M786.902 594.074v104.447c0 137.215-110.591 247.809-247.809 247.809s-247.809-110.591-247.809-247.809v-104.447h-176.126v-174.079h845.824v174.079c2.047 0-174.079 0-174.079 0zM383.446 594.074v104.447c0 86.015 69.632 155.647 155.647 155.647s155.647-69.632 155.647-155.647v-104.447h-311.294zM917.973 456.859h-116.735v100.353h116.735v-100.353zM115.158 184.474h845.824v174.079h-845.824v-174.079zM801.237 323.739h116.735v-100.353h-116.735v100.353zM115.158-48.999h845.824v174.079h-845.824v-174.079zM801.237 88.218h116.735v-100.353h-116.735v100.353z" />
<glyph unicode="&#xe901;" glyph-name="f-server" d="M856.348 228.795h-724.139c-31.034 0-56.426-25.392-56.426-56.426v-141.065c0-31.034 25.392-56.426 56.426-56.426h724.139c31.034 0 56.426 25.392 56.426 56.426v141.065c0.003 31.034-25.389 56.426-56.426 56.426zM846.943 78.323c0-20.69-16.927-37.617-37.617-37.617h-630.093c-20.69 0-37.617 16.927-37.617 37.617v47.022c0 20.69 16.927 37.617 37.617 37.617h630.096c20.69 0 37.617-16.927 37.617-37.617v-47.022zM856.348 557.947h-724.139c-31.034 0-56.426-25.392-56.426-56.426v-141.068c0-31.034 25.392-56.426 56.426-56.426h724.139c31.034 0 56.426 25.392 56.426 56.426v141.068c0.003 31.037-25.389 56.426-56.426 56.426zM249.766 360.456c-38.557 0-70.532 31.976-70.532 70.532s31.976 70.532 70.532 70.532c38.56 0 70.532-31.976 70.532-70.532 0-38.56-31.976-70.532-70.532-70.532zM494.278 360.456c-38.56 0-70.532 31.976-70.532 70.532s31.976 70.532 70.532 70.532c38.557 0 70.532-31.976 70.532-70.532 0.003-38.56-31.973-70.532-70.532-70.532zM856.348 887.101h-724.139c-31.034 0-56.426-25.392-56.426-56.426v-141.065c0-31.034 25.392-56.426 56.426-56.426h724.139c31.034 0 56.426 25.392 56.426 56.426v141.065c0.003 31.034-25.389 56.426-56.426 56.426zM303.371 713.121c-1.881-2.821-3.763-4.702-6.584-6.584-71.475-52.666-153.293 30.094-101.569 101.566 1.881 2.821 3.763 4.702 6.584 6.584 71.475 52.666 153.293-30.094 101.569-101.566zM547.883 713.121c-1.881-2.821-3.76-4.702-6.584-6.584-71.475-52.666-153.293 30.094-101.566 101.566 1.881 2.821 3.763 4.702 6.584 6.584 71.475 52.666 153.293-30.094 101.566-101.566zM792.399 713.121c-1.881-2.821-3.763-4.702-6.584-6.584-71.475-52.666-153.293 30.094-101.566 101.566 1.881 2.821 3.763 4.702 6.584 6.584 71.472 52.666 153.29-30.094 101.566-101.566z" />
<glyph unicode="&#xe902;" glyph-name="f-safetyReport" d="M832 780.8c-119.467 4.267-200.533 29.867-315.733 132.267-4.267 0-8.533 4.267-12.8 4.267s-12.8 0-12.8-4.267c-119.467-102.4-200.533-132.267-320-132.267-12.8 0-21.333-8.533-21.333-21.333 0-55.467 0-230.4 0-375.467 0-183.467 123.733-298.667 337.067-443.733 4.267-4.267 8.533-4.267 17.067-4.267 4.267 0 12.8 0 17.067 4.267 213.333 145.067 337.067 260.267 337.067 443.733 0 145.067 0 315.733 0 375.467-4.267 12.8-12.8 21.333-25.6 21.333zM772.267 384c0-128-68.267-217.6-273.067-358.4-204.8 140.8-273.067 234.667-273.067 358.4v320c102.4 12.8 183.467 46.933 273.067 115.2 89.6-72.533 170.667-106.667 273.067-115.2v-320zM401.067 465.067c-8.533 8.533-21.333 8.533-29.867 0l-25.6-25.6c-8.533-8.533-8.533-21.333 0-29.867l102.4-98.133c0 0 0 0 4.267-4.267 8.533-4.267 17.067-4.267 25.6 4.267l179.2 179.2c8.533 8.533 8.533 21.333 0 29.867l-25.6 25.6c-8.533 8.533-21.333 8.533-29.867 0l-140.8-140.8-59.733 59.733z" />
<glyph unicode="&#xe903;" glyph-name="f-backManage" d="M956.8 848h-883.2v-633.6h883.2v633.6zM515.2 819.2c9.6 0 19.2-9.6 19.2-19.2s-9.6-19.2-19.2-19.2c-9.6 0-19.2 9.6-19.2 19.2s6.4 19.2 19.2 19.2zM860.8 310.4h-691.2v441.6h691.2v-441.6zM691.2 185.6v-51.2h-361.6v51.2h-329.6v-99.2h1024v99.2z" />
<glyph unicode="&#xe904;" glyph-name="f-monitorCenter" d="M851.968 238.727c-81.921-94.209-204.8-155.647-339.968-155.647s-258.047 59.391-339.968 155.647c-69.632-49.153-112.641-114.688-112.641-186.368 0-155.647 202.753-63.488 452.609-63.488s452.609-94.209 452.609 63.488c0 71.679-43.009 137.215-112.641 186.368zM512 138.374c219.135 0 397.312 178.176 397.312 397.312s-178.176 399.362-397.312 399.362-397.312-180.224-397.312-399.359 178.176-397.315 397.312-397.315zM512 734.344c110.591 0 198.656-90.112 198.656-198.656s-90.112-198.656-198.656-198.656c-110.591 0-198.656 90.112-198.656 198.656s88.065 198.656 198.656 198.656zM512 390.28c79.874 0 145.409 65.535 145.409 145.409s-65.535 145.409-145.409 145.409c-79.871 0-145.409-65.535-145.409-145.409s65.538-145.409 145.409-145.409zM548.865 609.415c20.479 0 36.865-16.385 36.865-36.865s-16.385-36.865-36.865-36.865c-20.479 0-36.865 16.385-36.865 36.865 0 20.482 16.385 36.865 36.865 36.865z" />
<glyph unicode="&#xe905;" glyph-name="f-home" d="M246.782 794.064c0-61.643-49.972-111.615-111.615-111.615s-111.615 49.972-111.615 111.615c0 61.643 49.972 111.615 111.615 111.615s111.615-49.972 111.615-111.615zM246.782 486.864c0-61.643-49.972-111.615-111.615-111.615s-111.615 49.972-111.615 111.615c0 61.643 49.972 111.615 111.615 111.615s111.615-49.972 111.615-111.615zM246.782 169.422c0-61.643-49.972-111.615-111.615-111.615s-111.615 49.972-111.615 111.615c0 61.643 49.972 111.615 111.615 111.615s111.615-49.972 111.615-111.615zM373.759 720.337h606.209c5.121 0 10.241 2.047 14.335 6.144 4.097 4.097 6.144 9.215 6.144 14.335v105.471c0 11.265-9.215 20.479-20.479 20.479h-606.209c-11.265 0-20.479-9.215-20.479-20.479v-105.471c0-11.265 9.218-20.479 20.479-20.479zM979.968 559.567h-606.209c-11.265 0-20.479-9.215-20.479-20.479v-105.471c0-11.265 9.215-20.479 20.479-20.479h606.209c5.121 0 10.241 2.047 14.335 6.144 4.097 4.097 6.144 9.215 6.144 14.335v105.471c0 11.265-8.191 20.479-20.479 20.479zM979.968 243.152h-606.209c-11.265 0-20.479-9.215-20.479-20.479v-105.471c0-11.265 9.215-20.479 20.479-20.479h606.209c5.121 0 10.241 2.047 14.335 6.144 4.097 4.097 6.144 9.215 6.144 14.335v105.471c0 11.265-8.191 20.479-20.479 20.479z" />
<glyph unicode="&#xe906;" glyph-name="f-devopsManage" d="M707.462 267.776c-49.153 0-93.185-22.529-121.856-58.368l-212.991 124.929c21.503 26.624 33.791 60.415 33.791 97.279 0 33.791-11.265 65.535-29.697 91.135l203.776 115.712c28.671-38.912 74.753-65.535 126.976-65.535 87.041 0 157.697 70.656 157.697 157.697s-70.656 157.697-157.697 157.697-157.697-70.656-157.697-157.697c0-22.529 5.121-44.032 13.312-63.488l-208.897-117.759c-27.647 24.576-64.512 39.935-105.471 39.935-87.041 0-157.697-70.656-157.697-157.697s70.656-157.697 157.697-157.697c37.888 0 71.679 13.312 99.329 34.815l219.135-126.976c-11.265-21.503-17.409-46.079-17.409-71.679 0-87.041 70.656-157.697 157.697-157.697s157.697 70.656 157.697 157.697-70.659 157.697-157.697 157.697zM286.716 531.46l341.565 186.386 49.050-89.887-341.565-186.386-49.050 89.887zM359.302 394.605l347.458-203.026-51.661-88.412-347.458 203.026 51.661 88.412z" />
<glyph unicode="&#xe907;" glyph-name="f-resourceManage" d="M704 828.207h-384l-320-384v-256c0-35.399 28.601-64 64-64h896c35.399 0 64 28.601 64 64v256l-320 384zM640 316.207h-256l-64 64h384l-64-64zM83.399 444.207l266.599 320h324.001l266.599-320h-857.2zM284.999 636.207h454l-53.398 64h-347.4l-53.202-64zM178.201 508.207h667.4l-53.401 64h-560.599l-53.401-64z" />
<glyph unicode="&#xe908;" glyph-name="f-cmdb" horiz-adv-x="1026" d="M250.375 611.198c10.786 0 21.574-2.156 31.28-4.315 36.674 42.069 78.743 79.822 122.968 113.261-2.156 7.55-3.235 16.18-3.235 24.809 0 11.865 2.156 22.653 5.394 33.439-49.619 35.595-104.632 65.799-161.801 89.529-53.934-33.439-101.396-77.664-139.147-128.362 28.045-49.619 61.484-96.002 99.238-138.071 12.941 6.474 28.045 9.709 45.304 9.709zM144.664 505.487c0 15.1 3.235 29.124 8.63 42.069-33.439 36.674-64.719 77.664-91.687 119.732-33.439-66.878-52.854-142.383-52.854-222.205 0-92.767 25.889-179.060 70.113-253.488 16.18 89.529 46.383 173.666 87.373 251.329-14.024 17.259-21.574 38.833-21.574 62.563zM507.096 850.662c28.045 0 52.854-10.786 72.272-28.045 55.013 23.73 113.261 42.069 173.666 53.934-73.349 40.989-157.486 64.719-248.094 64.719-61.484 0-119.732-10.786-174.745-31.28 43.148-21.574 84.137-46.383 122.968-74.428 16.183 9.706 34.518 15.1 53.934 15.1zM664.582 353.395c6.471 14.024 16.18 25.889 26.965 35.595-31.28 96.002-80.899 183.375-144.542 258.879-11.865-5.394-25.889-8.63-39.91-8.63-22.653 0-44.225 7.55-61.484 19.415-37.754-29.124-73.349-61.484-105.708-97.082 9.709-16.18 16.18-35.595 16.18-56.090 0-10.786-2.156-21.574-4.315-31.28 91.687-61.481 198.475-104.629 312.813-120.809zM801.573 211.013c1.079-20.495 2.156-39.91 2.156-60.404 0-35.595-2.156-71.193-6.471-105.708 84.137 61.484 147.777 148.856 180.136 250.25-37.754-9.709-77.664-16.18-117.576-19.415-8.627-30.207-30.201-52.857-58.245-64.722zM639.772 282.202c-122.968 20.495-236.229 66.878-334.387 133.756-16.18-9.709-34.518-15.1-55.013-15.1-7.55 0-15.1 1.079-21.574 2.156-47.463-89.529-77.664-189.846-86.293-295.557 47.463-50.698 104.632-91.687 169.351-118.653 79.822 122.97 193.084 225.443 327.916 293.398zM838.248 812.909c-79.822-7.55-155.327-28.045-226.52-57.169 0-3.235 1.079-6.471 1.079-10.786 0-16.18-4.315-32.36-10.786-46.383 70.113-83.058 125.126-180.136 159.642-285.848 43.148-1.079 79.822-26.965 94.923-64.719 47.463 4.315 93.843 14.024 139.147 26.965 3.235 22.653 5.394 46.383 5.394 69.034 0 146.7-62.563 278.298-162.88 368.905zM692.629 226.113c-126.203-59.328-231.914-149.936-308.498-262.118 38.833-9.709 78.743-15.1 120.812-15.1 74.428 0 145.621 16.18 209.261 46.383 9.709 49.619 15.1 101.394 15.1 154.251 0 19.415-1.079 37.754-2.156 57.169-11.868 4.315-23.733 10.786-34.518 19.415z" />
<glyph unicode="&#xe909;" glyph-name="f-storage" horiz-adv-x="1036" d="M971.857 932.828h-913.945c-18.619 0-33.625-15.005-33.625-33.625v-913.947c0-18.617 15.005-33.625 33.625-33.625h913.947c18.617 0 33.625 15.005 33.625 33.625v913.947c-0.003 18.343-15.285 33.625-33.628 33.625zM212.135 882.254h605.501v-283.161h-605.501v283.161zM847.090 23.049h-664.412v419.044h664.412v-419.044zM646.738 840.293h84.199v-201.74h-84.199v201.74zM785.956 338.444h-542.42v33.625h542.423l-0.003-33.625zM785.956 220.623h-542.42v33.625h542.423l-0.003-33.625zM785.956 107.247h-542.42v33.625h542.423l-0.003-33.625z" />
<glyph unicode="&#xe90a;" glyph-name="f-importAll" d="M968.143 571.557h-126.398l-0.903 124.586-173.336-185.525 176.051-188.24-0.903 124.586h125.489zM748.758 696.143v241.048h-666.28l479.398-162.508v-750.197l-487.523 116.419-8.125-52.817 500.263-123.195 52.263-14.934v190.946h130.005v193.659l-174.955 176.37zM439.995 467.275h62.296v-62.296h-62.296v62.296z" />
<glyph unicode="&#xe90b;" glyph-name="f-monitorScreen" d="M894.494 800.376h-783.059c-54.212 0-90.353-36.141-90.353-84.329v-536.094c0-48.188 36.141-84.329 90.353-84.329h783.059c45.176 0 90.353 48.188 90.353 84.329v536.094c0 45.176-33.129 84.329-90.353 84.329zM924.612 207.059c0-30.118-27.106-57.224-60.235-57.224h-722.824c-33.129 0-60.235 24.094-60.235 57.224v481.882c0 30.118 27.106 57.224 60.235 57.224h722.824c33.129 0 60.235-24.094 60.235-57.224v-481.882zM816.188 707.012h-626.447c-72.282 0-81.318-39.153-81.318-72.282v-373.459c0-36.141 27.106-72.282 81.318-72.282h626.447c42.165 0 81.318 30.118 81.318 72.282v373.459c0 36.141-30.118 72.282-81.318 72.282zM849.318 270.306c0-24.094-21.082-42.165-48.188-42.165h-593.318c-27.106 0-48.188 18.071-48.188 42.165v355.388c0 24.094 21.082 42.165 48.188 42.165h593.318c27.106 0 48.188-18.071 48.188-42.165v-355.388zM231.906 475.106h120.471v-180.706h-120.471v180.706zM442.729 414.871h120.471v-120.471h-120.471v120.471zM653.553 565.459h120.471v-271.059h-120.471v271.059z" />
<glyph unicode="&#xe90c;" glyph-name="f-detail1" d="M245.459 911.812h-173.176c-19.576 0-36.141-16.565-36.141-36.141v-173.176c0-19.576 16.565-36.141 36.141-36.141h173.176c19.576 0 36.141 16.565 36.141 36.141v173.176c0 19.576-16.565 36.141-36.141 36.141zM956.235 911.812h-608.376c-9.035 0-15.059-6.024-15.059-15.059v-112.941c0-9.035 6.024-15.059 15.059-15.059h608.376c9.035 0 15.059 6.024 15.059 15.059v112.941c0 9.035-7.529 15.059-15.059 15.059zM956.235 731.106h-608.376c-9.035 0-15.059-6.024-15.059-15.059v-34.635c0-9.035 6.024-15.059 15.059-15.059h608.376c9.035 0 15.059 6.024 15.059 15.059v34.635c0 7.529-7.529 15.059-15.059 15.059zM245.459 613.647h-173.176c-19.576 0-36.141-16.565-36.141-36.141v-173.176c0-19.576 16.565-36.141 36.141-36.141h173.176c19.576 0 36.141 16.565 36.141 36.141v173.176c0 19.576-16.565 36.141-36.141 36.141zM956.235 613.647h-608.376c-9.035 0-15.059-6.024-15.059-15.059v-112.941c0-9.035 6.024-15.059 15.059-15.059h608.376c9.035 0 15.059 6.024 15.059 15.059v112.941c0 9.035-7.529 15.059-15.059 15.059zM956.235 432.941h-608.376c-9.035 0-15.059-6.024-15.059-15.059v-34.635c0-9.035 6.024-15.059 15.059-15.059h608.376c9.035 0 15.059 6.024 15.059 15.059v34.635c0 7.529-7.529 15.059-15.059 15.059zM245.459 312.471h-173.176c-19.576 0-36.141-16.565-36.141-36.141v-173.176c0-19.576 16.565-36.141 36.141-36.141h173.176c19.576 0 36.141 16.565 36.141 36.141v173.176c0 19.576-16.565 36.141-36.141 36.141zM956.235 312.471h-608.376c-9.035 0-15.059-6.024-15.059-15.059v-112.941c0-9.035 6.024-15.059 15.059-15.059h608.376c9.035 0 15.059 6.024 15.059 15.059v112.941c0 9.035-7.529 15.059-15.059 15.059zM956.235 131.765h-608.376c-9.035 0-15.059-6.024-15.059-15.059v-34.635c0-9.035 6.024-15.059 15.059-15.059h608.376c9.035 0 15.059 6.024 15.059 15.059v34.635c0 7.529-7.529 15.059-15.059 15.059z" />
<glyph unicode="&#xe90d;" glyph-name="f-daily" d="M903.529 949.459h-783.059c-58.729 0-105.412-46.682-105.412-105.412v-783.059c0-58.729 46.682-105.412 105.412-105.412h783.059c58.729 0 105.412 46.682 105.412 105.412v783.059c0 58.729-46.682 105.412-105.412 105.412zM286.118 127.247h-123.482v108.424h123.482v-108.424zM286.118 271.812h-123.482v108.424h123.482v-108.424zM286.118 768.753c-22.588 0-39.153 18.071-39.153 39.153s18.071 39.153 39.153 39.153 39.153-18.071 39.153-39.153c0-21.082-16.565-39.153-39.153-39.153zM468.329 127.247h-123.482v108.424h123.482v-108.424zM468.329 271.812h-123.482v108.424h123.482v-108.424zM468.329 420.894h-123.482v108.424h123.482v-108.424zM472.847 807.906c0 21.082 18.071 39.153 39.153 39.153s39.153-18.071 39.153-39.153-16.565-39.153-39.153-39.153-39.153 18.071-39.153 39.153zM649.035 271.812h-123.482v108.424h123.482v-108.424zM649.035 420.894h-123.482v108.424h123.482v-108.424zM737.882 848.565c21.082 0 39.153-18.071 39.153-39.153s-16.565-40.659-39.153-40.659-39.153 18.071-39.153 39.153 18.071 40.659 39.153 40.659zM829.741 271.812h-123.482v108.424h123.482v-108.424zM829.741 420.894h-123.482v108.424h123.482v-108.424z" />
<glyph unicode="&#xe90e;" glyph-name="f-monthly" d="M900.518 944.941h-783.059c-58.729 0-105.412-46.682-105.412-105.412v-783.059c0-58.729 46.682-105.412 105.412-105.412h783.059c58.729 0 105.412 46.682 105.412 105.412v783.059c0 58.729-46.682 105.412-105.412 105.412zM206.306 819.953c0 16.565 13.553 30.118 30.118 30.118h546.635c16.565 0 30.118-13.553 30.118-30.118v-34.635c0-16.565-13.553-30.118-30.118-30.118h-546.635c-16.565 0-30.118 13.553-30.118 30.118v34.635zM299.671 122.729h-123.482v108.424h123.482v-108.424zM299.671 268.8h-123.482v108.424h123.482v-108.424zM481.882 122.729h-123.482v108.424h123.482v-108.424zM481.882 268.8h-123.482v108.424h123.482v-108.424zM481.882 416.376h-123.482v108.424h123.482v-108.424zM662.588 122.729h-123.482v108.424h123.482v-108.424zM662.588 268.8h-123.482v108.424h123.482v-108.424zM662.588 416.376h-123.482v108.424h123.482v-108.424zM843.294 122.729h-123.482v108.424h123.482v-108.424zM843.294 268.8h-123.482v108.424h123.482v-108.424zM843.294 416.376h-123.482v108.424h123.482v-108.424z" />
<glyph unicode="&#xe90f;" glyph-name="f-weekly" d="M870.4 345.6c0-45.176-31.624-81.318-70.776-81.318h-636.988c-39.153 0-70.776 36.141-70.776 81.318v263.529h-75.294v-560.188c0-54.212 43.671-97.882 97.882-97.882h731.859c54.212 0 97.882 43.671 97.882 97.882v560.188h-75.294l1.506-263.529zM233.412 545.882h73.788v-73.788h-73.788v73.788zM338.824 545.882h73.788v-73.788h-73.788v73.788zM444.235 545.882h73.788v-73.788h-73.788v73.788zM549.647 545.882h73.788v-73.788h-73.788v73.788zM655.059 545.882h73.788v-73.788h-73.788v73.788zM233.412 452.518h73.788v-73.788h-73.788v73.788zM338.824 452.518h73.788v-73.788h-73.788v73.788zM444.235 452.518h73.788v-73.788h-73.788v73.788zM549.647 452.518h73.788v-73.788h-73.788v73.788zM655.059 452.518h73.788v-73.788h-73.788v73.788zM847.812 851.576h-94.871v40.659c0 34.635-27.106 61.741-61.741 61.741s-61.741-27.106-61.741-61.741v-40.659h-87.341v40.659c0 34.635-27.106 61.741-61.741 61.741s-61.741-27.106-61.741-61.741v-40.659h-87.341v40.659c0 34.635-27.106 61.741-61.741 61.741s-61.741-27.106-61.741-61.741v-40.659h-94.871c-54.212 0-97.882-43.671-97.882-97.882v-105.412h929.129v105.412c1.506 54.212-42.165 97.882-96.376 97.882zM661.082 878.682c0 19.576 13.553 34.635 31.624 34.635s31.624-15.059 31.624-34.635v-27.106h-61.741l-1.506 27.106zM450.259 878.682c0 19.576 13.553 34.635 31.624 34.635 16.565 0 31.624-15.059 31.624-34.635v-27.106h-61.741l-1.506 27.106zM239.435 878.682c0 19.576 13.553 34.635 31.624 34.635s31.624-15.059 31.624-34.635v-27.106h-61.741l-1.506 27.106z" />
<glyph unicode="&#xe910;" glyph-name="f-detail" d="M512 929.882c-266.541 0-481.882-215.341-481.882-481.882s215.341-481.882 481.882-481.882 481.882 215.341 481.882 481.882-215.341 481.882-481.882 481.882zM615.906 374.212l176.188-176.188c6.024-6.024 6.024-16.565 0-24.094l-6.024-6.024c-6.024-6.024-16.565-6.024-24.094 0l-176.188 177.694c-96.376-81.318-239.435-76.8-328.282 13.553-94.871 94.871-94.871 248.471 0 344.847s248.471 94.871 344.847 0c88.847-90.353 93.365-233.412 13.553-329.788zM623.435 530.824c0-107.286-86.973-194.259-194.259-194.259s-194.259 86.973-194.259 194.259c0 107.286 86.973 194.259 194.259 194.259s194.259-86.973 194.259-194.259z" />
<glyph unicode="&#xe911;" glyph-name="f-trash" d="M828.587 669.867h-684.373c-23.040 0-41.813 18.773-41.813 41.813v70.827c0 23.040 18.773 41.813 41.813 41.813h685.227c23.040 0 41.813-18.773 41.813-41.813v-70.827c-0.853-23.040-19.627-41.813-42.667-41.813zM145.067 618.667v-588.8c0-33.28 26.453-59.733 59.733-59.733h563.2c33.28 0 59.733 26.453 59.733 59.733v588.8h-682.667zM349.867 114.347c0-18.773-15.36-33.28-33.28-33.28h-0.853c-18.773 0-33.28 15.36-33.28 33.28v394.24c0 18.773 15.36 33.28 33.28 33.28h0.853c18.773 0 33.28-15.36 33.28-33.28v-394.24zM520.533 114.347c0-18.773-15.36-33.28-33.28-33.28h-0.853c-18.773 0-33.28 15.36-33.28 33.28v394.24c0 18.773 15.36 33.28 33.28 33.28h0.853c18.773 0 33.28-15.36 33.28-33.28v-394.24zM691.2 114.347c0-18.773-15.36-33.28-33.28-33.28h-0.853c-18.773 0-33.28 15.36-33.28 33.28v394.24c0 18.773 15.36 33.28 33.28 33.28h0.853c18.773 0 33.28-15.36 33.28-33.28v-394.24zM586.24 908.8h-182.613c-15.36 0-28.16-12.8-28.16-28.16v-63.147c0-15.36 12.8-28.16 28.16-28.16h182.613c15.36 0 28.16 12.8 28.16 28.16v63.147c0 15.36-12.8 28.16-28.16 28.16zM571.733 824.32c0-10.24-7.68-17.92-17.92-17.92h-117.76c-10.24 0-17.92 7.68-17.92 17.92v23.893c0 10.24 7.68 17.92 17.92 17.92h117.76c10.24 0 17.92-7.68 17.92-17.92v-23.893z" />
<glyph unicode="&#xe912;" glyph-name="f-permeametry" d="M505.218 884.392c-257.698 0-466.604-208.906-466.604-466.604s208.906-466.604 466.604-466.604 466.604 208.906 466.604 466.604c0 257.704-208.906 466.604-466.604 466.604zM505.218 75.978c-188.779 0-341.816 153.040-341.816 341.816s153.037 341.819 341.816 341.819 341.816-153.040 341.816-341.816c0-188.788-153.037-341.819-341.816-341.819zM304.199 388.624c-1.37 9.528-2.113 19.254-2.113 29.164 0 112.19 90.943 203.132 203.132 203.132s203.132-90.943 203.132-203.132c0-9.907-0.744-19.633-2.113-29.164h73.263c1.005 9.588 1.544 19.314 1.544 29.164 0 152.339-123.497 275.829-275.829 275.829s-275.826-123.49-275.826-275.829c0-9.85 0.539-19.576 1.544-29.164h73.266zM643.426 451.814h136.074v-63.187h-136.074v63.187zM586.925 240.653c0-45.125-36.581-81.707-81.707-81.707s-81.707 36.581-81.707 81.707c0 45.125 36.581 81.707 81.707 81.707s81.707-36.581 81.707-81.707zM436.109 242.453l69.109 276.187 69.109-276.187z" />
<glyph unicode="&#xe913;" glyph-name="f-databaseCenter" d="M426.667 681.813h51.2c14.507 0 25.6-11.093 25.6-25.6v-375.467c0-14.507-11.093-25.6-25.6-25.6h-51.2c-14.507 0-25.6 11.093-25.6 25.6v375.467c0 14.507 11.093 25.6 25.6 25.6zM221.867 681.813h51.2c14.507 0 25.6-11.093 25.6-25.6v-375.467c0-14.507-11.093-25.6-25.6-25.6h-51.2c-14.507 0-25.6 11.093-25.6 25.6v375.467c0 14.507 11.093 25.6 25.6 25.6zM341.333 940.373h17.067c9.387 0 17.067-7.68 17.067-17.067v-913.067c0-9.387-7.68-17.067-17.067-17.067h-17.067c-9.387 0-17.067 7.68-17.067 17.067v913.067c0 9.387 7.68 17.067 17.067 17.067zM580.267 744.107h51.2c14.507 0 25.6-11.093 25.6-25.6v-512c0-14.507-11.093-25.6-25.6-25.6h-51.2c-14.507 0-25.6 11.093-25.6 25.6v512c0 14.507 11.093 25.6 25.6 25.6zM785.067 744.107h51.2c14.507 0 25.6-11.093 25.6-25.6v-512c0-14.507-11.093-25.6-25.6-25.6h-51.2c-14.507 0-25.6 11.093-25.6 25.6v512c0 14.507 11.093 25.6 25.6 25.6zM699.733 931.84h17.067c9.387 0 17.067-7.68 17.067-17.067v-904.533c0-9.387-7.68-17.067-17.067-17.067h-17.067c-9.387 0-17.067 7.68-17.067 17.067v904.533c0 9.387 7.68 17.067 17.067 17.067z" />
<glyph unicode="&#xe914;" glyph-name="f-storageResource" horiz-adv-x="1095" d="M43.662 745.245h819.2c14.507 0 25.6 11.093 25.6 25.6v17.066c0 14.507-11.093 25.6-25.6 25.6h-819.2c-14.507 0-25.6-11.093-25.6-25.6v-17.066c0-14.507 11.093-25.6 25.6-25.6zM933.69 466.204h10.241c5.121 0 8.534 3.414 8.534 8.534v48.641c0 5.121-3.414 8.534-8.534 8.534h-10.241c-5.121 0-8.534-3.414-8.534-8.534v-48.641c0-5.121 3.414-8.534 8.534-8.534zM793.741 301.51h176.641l0.852 11.093h-177.493zM1030.969 571.162h-298.666c-5.973 0-11.093-5.121-11.093-11.093v-298.666c0-5.973 5.121-11.093 11.093-11.093h298.666c5.973 0 11.093 5.121 11.093 11.093v298.666c0 5.976-5.121 11.093-11.093 11.093zM792.038 545.565h180.907c5.121 0 8.534-3.414 8.534-8.534v-75.093c0-5.121-3.414-8.534-8.534-8.534h-180.907c-5.121 0-8.534 3.414-8.534 8.534v75.093c0 5.121 3.414 8.534 8.534 8.534zM990.862 281.883c0-4.266-3.414-8.534-8.534-8.534h-200.534c-5.121 0-8.534 3.414-8.534 8.534v119.466c0 5.121 3.414 8.534 8.534 8.534h200.534c5.121 0 8.534-3.414 8.534-8.534v-119.466zM793.741 338.204h176.641l0.852 11.093h-177.493zM793.741 376.604h176.641l0.852 11.093h-177.493zM692.196 263.11v38.4h-603.307c-14.507 0-25.6 11.093-25.6 25.6v308.907c0 14.507 11.093 25.6 25.6 25.6h729.6c14.507 0 25.6-11.093 25.6-25.6v-34.986h45.227v85.331c-0.852 13.652-11.948 25.6-26.452 25.6h-819.203c-14.507 0-25.6-11.093-25.6-25.6v-409.6c0-14.507 11.093-25.6 25.6-25.6h656.214c-5.973 0-7.679 5.121-7.679 11.948z" />
<glyph unicode="&#xe915;" glyph-name="f-networkSafety" d="M512 706.048c-40.96 0-73.728-32.768-73.728-75.776v-61.44h149.504v63.488c-2.048 40.96-34.816 73.728-75.776 73.728zM868.352 822.784h-712.704c-69.632 0-124.928-57.344-124.928-124.928v-346.112c0-69.632 57.344-124.928 124.928-124.928h305.152v-90.112h-131.072c-16.384 0-28.672-12.288-28.672-28.672v-4.096c0-16.384 12.288-28.672 28.672-28.672h364.544c16.384 0 28.672 12.288 28.672 28.672v4.096c0 16.384-12.288 28.672-28.672 28.672h-131.072v90.112h305.152c69.632 0 124.928 57.344 124.928 124.928v344.064c0 69.632-57.344 126.976-124.928 126.976zM679.936 341.504c0-24.576-20.48-45.056-45.056-45.056h-245.76c-24.576 0-45.056 20.48-45.056 45.056v184.32c0 24.576 20.48 45.056 45.056 45.056h4.096v61.44c0 65.536 53.248 118.784 118.784 118.784s118.784-53.248 118.784-118.784v-61.44h4.096c24.576 0 45.056-20.48 45.056-45.056v-184.32z" />
<glyph unicode="&#xe916;" glyph-name="f-systemSoftware" horiz-adv-x="973" d="M910.199 692.673c-3.924 3.924-3.924 3.924-7.846 3.924l-70.619 7.846c-3.924 15.692-11.77 31.386-19.616 47.078l47.078 54.927c3.924 3.924 3.924 7.846 3.924 11.77s0 7.846-3.924 7.846l-43.157 43.157c-3.924 3.924-7.846 3.924-11.77 3.924s-7.846 0-7.846-3.924l-54.927-47.078c-15.692 7.846-31.386 15.692-47.078 19.616l-7.846 70.616c0 3.924-3.924 7.846-3.924 7.846s-15.692 15.695-19.613 15.695h-62.773c-3.924 0-7.846 0-11.77-3.924s-3.924-3.924-3.924-7.846l-7.846-70.619c-15.692-3.924-31.386-11.77-47.078-19.616l-54.927 47.078c-3.924 3.924-7.846 3.924-7.846 3.924-3.924 0-7.846 0-11.77-3.924l-43.157-43.154c-3.924-11.77-3.924-15.692-3.924-15.692 0-3.924 0-7.846 3.924-11.77l47.078-54.927c-11.77-15.692-19.616-31.386-23.541-51.003l-70.619-7.846c-3.924 0-7.846-3.924-7.846-3.924s-7.846-3.924-7.846-7.846v-62.773c0-3.924 0-7.846 3.924-11.77s3.924-3.924 7.846-3.924l70.619-7.846c7.846-15.692 15.692-31.386 23.541-47.078l-47.078-54.927c0-3.924 0-7.846 0-11.77s0-7.846 3.924-7.846l43.157-43.157c3.924-3.924 7.846-3.924 11.77-3.924s7.846 0 7.846 3.924l54.927 47.078c15.692-7.846 31.386-15.692 47.078-19.616l7.846-70.619c0-3.924 3.924-7.846 3.924-7.846 3.924-3.924 7.846-3.924 11.77-3.924h62.773c3.924 0 7.846 0 11.77 3.924s3.924 3.924 3.924 7.846l7.846 70.619c15.692 3.924 31.386 11.77 47.078 19.616l54.927-47.078c3.924-3.924 3.924-3.924 7.846-3.924s7.846 0 11.77 3.924l43.157 43.157c3.924 3.924 3.924 7.846 3.924 7.846 0 3.924 0 7.846-3.924 11.77l-47.078 54.927c7.846 15.692 15.692 31.386 19.616 47.078l70.619 7.846c3.924 0 7.846 3.924 7.846 3.924 3.924 3.924 3.924 7.846 3.924 11.77v62.773c7.84 3.922 3.916 7.846 3.916 7.846zM710.113 622.054c-3.924-11.77-11.77-19.616-19.616-27.462s-15.692-11.77-27.462-19.616c-11.77-3.924-19.616-7.846-31.386-7.846s-23.541 3.924-31.386 7.846c-11.77 3.924-19.616 11.77-27.462 19.616s-11.77 15.692-19.616 27.462-7.846 19.616-7.846 31.386c0 11.77 3.924 23.541 7.846 31.386 3.924 11.77 11.77 19.616 19.616 27.462s15.692 11.77 27.462 19.616c11.77 7.846 19.616 7.846 31.386 7.846s23.541-3.924 31.386-7.846 19.616-11.77 27.462-19.616c7.846-7.846 11.77-15.692 19.616-27.462 3.924-11.77 7.846-19.616 7.846-31.386-3.922-11.77-3.922-23.541-7.846-31.386zM659.11 347.425h-51.003c-7.846 0-15.692 3.924-19.616 7.846-3.924 3.924-11.77 7.846-19.616 7.846h-3.924c0 0 0 0-3.924 0v0h-415.864c-7.846 0-11.77 3.924-11.77 11.77v153.008c0 7.846 7.846 15.692 11.77 15.692h278.554l7.846 7.846c-7.846 11.77-7.846 19.616-15.692 35.311-47.078 0-78.465 7.846-82.389 23.541v70.619c0 3.924 0 7.846 3.924 11.77h-270.711v11.77h270.705c3.924 3.924 3.924 3.924 7.846 7.846h-278.551v11.77h345.248c0 3.924 0 3.924 3.924 7.846h-349.173v7.846h353.094c0 3.924 0 3.924 3.924 7.846h-357.018v7.846h360.94c0 3.924 0 3.924 0 7.846h-360.94v11.77h345.248c-3.924 3.924-3.924 3.924-3.924 7.846h-341.324v7.849h333.478l-7.846 7.846c-7.846 11.77-7.846 19.616-3.924 31.386h-282.472c-43.157 0-82.389-35.311-82.389-82.389v-710.11c0-43.157 35.311-82.389 82.389-82.389h478.637c43.157 0 82.389 35.308 82.389 82.389v302.091c3.924 3.922 0 7.846-7.846 7.846v0z" />
<glyph unicode="&#xe917;" glyph-name="f-usercenter" d="M510.847 454.656c120.832 0 218.112 108.544 218.112 241.665s-97.279 242.688-218.112 242.688-218.112-108.544-218.112-241.665c0-134.144 98.303-242.688 218.112-242.688zM762.75 486.4c-12.288 3.071-25.6-3.071-32.768-14.335-77.824-125.953-203.776-129.024-218.112-129.024s-140.288 4.097-218.112 130.047c-7.168 11.265-20.479 16.385-32.768 14.335-169.985-36.865-214.018-293.888-201.729-501.759 1.024-16.385 14.335-28.671 30.721-28.671h843.776c16.385 0 29.697 12.288 30.721 28.671 13.312 207.871-31.744 463.871-201.729 500.735z" />
<glyph unicode="&#xe918;" glyph-name="f-ticketManage" horiz-adv-x="1013" d="M592.907 560.503v7.62c3.808 15.236-11.428 30.475-26.664 30.475h-365.697c-15.236 0-30.475-15.236-30.475-30.475v-7.62c0-19.047 15.236-30.475 30.475-30.475h361.886c19.047 0 30.475 15.236 30.475 30.475zM924.317 865.246l-15.239 7.62c-26.664 15.236-60.948 7.62-76.187-19.047l-30.475-49.52 110.471-64.759 30.475 49.52c15.239 26.667 7.62 60.951-19.045 76.187zM768.25 746.207l108.86-62.852-228.554-395.855-108.86 62.852 228.554 395.855zM520.528 175.761l114.279 87.615-106.66 60.948-22.856-140.944c0-11.428 7.62-15.239 15.236-7.62zM200.545 419.556c-19.047 0-30.475-15.236-30.475-30.475v-7.62c0-19.047 15.236-30.475 30.475-30.475h297.127l45.712 68.568h-342.838zM676.711 88.146c0-26.664-19.047-45.712-45.712-45.712h-476.165c-26.664 0-45.712 19.047-45.712 45.712v598.064c0 26.664 19.047 45.712 45.712 45.712h476.165c26.664 0 45.712-19.047 45.712-45.712v-34.284l68.568 118.088c-15.236 22.856-41.903 41.903-72.376 41.903h-563.781c-49.52 0-83.804-34.284-83.804-83.807v-689.485c0-41.903 38.092-79.996 83.804-79.996h563.778c45.712 0 83.804 38.092 83.804 83.804v358.077l-79.996-140.944v-171.422zM200.545 240.52c-15.236 0-30.475-11.428-30.475-30.475v-7.62c0-15.236 11.428-30.475 30.475-30.475h224.751c19.047 0 30.475 15.236 30.475 30.475v7.62c0 15.236-11.428 30.475-30.475 30.475h-224.751z" />
<glyph unicode="&#xe919;" glyph-name="f-availableCheck" d="M669.757 351.786c-37.112-42.608-90.717-68.726-151.195-68.726s-115.459 26.115-151.195 68.726c-31.615-21.991-49.481-50.857-49.481-82.468 0-68.726 90.717-28.863 202.052-28.863s202.052-42.608 202.052 28.863c-2.748 31.612-21.994 60.475-52.233 82.468zM518.563 307.802c97.589 0 177.31 79.72 177.31 177.31s-79.72 178.685-177.31 178.685-177.31-81.096-177.31-178.685 79.72-177.31 177.31-177.31zM518.563 573.080c49.481 0 87.968-39.86 87.968-87.968s-39.86-87.968-87.968-87.968c-49.481 0-87.968 39.86-87.968 87.968s38.487 87.968 87.968 87.968zM518.563 419.137c35.736 0 64.602 28.863 64.602 64.602s-28.863 64.602-64.602 64.602c-35.736 0-64.602-28.863-64.602-64.602s28.866-64.602 64.602-64.602zM535.059 516.726c9.621 0 16.494-6.873 16.494-16.494s-6.873-16.494-16.494-16.494c-9.621 0-16.494 6.873-16.494 16.494s6.87 16.494 16.494 16.494zM555.674 742.141h-72.847v126.456c0 15.118 12.37 27.49 27.49 27.49h17.869c15.118 0 27.49-12.37 27.49-27.49v-126.456zM506.193 689.912l-38.487 65.975c-5.497 9.621 1.376 20.618 12.37 20.618h75.596c10.997 0 17.869-10.997 12.37-20.618l-38.481-65.975c-5.497-9.621-17.869-9.621-23.366 0zM550.177 153.859h-71.475v-126.453c0-15.118 12.37-27.49 27.49-27.49h17.869c15.118 0 27.49 12.37 27.49 27.49l-1.376 126.453zM500.696 208.837l-38.487-65.975c-5.497-9.621 1.376-20.618 12.37-20.618h75.596c10.997 0 17.869 10.997 12.37 20.618l-38.487 65.975c-4.118 9.621-17.863 9.621-23.36 0zM253.285 478.239v-71.475h-126.453c-15.118 0-27.49 12.37-27.49 27.49v16.494c0 15.121 12.37 27.49 27.49 27.49h126.453zM306.89 430.131l-65.975-38.484c-9.621-4.124-20.618 2.748-20.618 12.37v74.223c0 10.997 10.997 17.869 20.618 12.37l65.975-38.487c9.624-4.121 9.624-17.866 0-21.991zM772.847 478.239v-71.475h126.453c15.118 0 27.49 12.37 27.49 27.49v16.494c0 15.121-12.37 27.49-27.49 27.49h-126.453zM719.241 430.131l65.975-38.487c9.621-4.124 20.618 2.748 20.618 12.37v74.223c0 10.997-10.997 17.869-20.618 12.37l-65.975-38.487c-9.621-4.118-9.621-17.863 0-21.988z" />
<glyph unicode="&#xe91a;" glyph-name="f-chartManage" horiz-adv-x="1095" d="M517.653 643.913h37.629v-276.952h-37.629v276.952zM163.814 538.551h37.629v-174.6h-37.629v174.6zM881.033 529.52h37.629v-159.548h-37.629v159.548zM919.791 535.541c0-11.638-9.434-21.072-21.072-21.072h-713.452c-11.638 0-21.072 9.434-21.072 21.072v0c0 11.638 9.434 21.072 21.072 21.072h713.452c11.638 0 21.072-9.434 21.072-21.072v0zM674.164 833.565h-275.39c-17.057 0-30.886-16.175-30.886-36.124v-132.455c0-19.95 13.827-36.124 30.886-36.124h275.39c17.057 0 30.886 16.175 30.886 36.124v132.455c-0.003 19.95-13.83 36.124-30.886 36.124zM320.322 397.065h-275.387c-17.057 0-30.886-16.175-30.886-36.124v-132.455c0-19.95 13.827-36.124 30.886-36.124h275.39c17.057 0 30.886 16.175 30.886 36.124v132.455c-0.003 19.95-13.83 36.124-30.889 36.124zM674.164 394.055h-275.39c-17.057 0-30.886-16.175-30.886-36.124v-132.455c0-19.95 13.827-36.124 30.886-36.124h275.39c17.057 0 30.886 16.175 30.886 36.124v132.455c-0.003 19.95-13.83 36.124-30.886 36.124zM1037.537 391.044h-275.387c-17.057 0-30.886-16.175-30.886-36.124v-132.455c0-19.95 13.827-36.124 30.886-36.124h275.39c17.057 0 30.886 16.175 30.886 36.124v132.455c0 19.95-13.827 36.124-30.889 36.124z" />
<glyph unicode="&#xe91b;" glyph-name="f-close" d="M516.552 485.888c38.912 0 69.632 30.721 69.632 69.632v319.488c0 38.912-30.721 69.632-69.632 69.632s-69.632-30.721-69.632-69.632v-321.535c2.047-36.865 32.768-67.585 69.632-67.585zM717.255 823.809c-34.815 16.385-75.776 2.047-92.159-32.768-16.385-32.768-2.047-73.729 32.768-90.112 106.497-51.2 182.271-161.791 182.271-288.768 0-178.176-143.359-321.535-321.535-321.535s-321.535 143.359-321.535 321.535c0 126.976 73.729 237.568 182.271 288.768 32.768 16.385 47.103 57.344 28.674 92.159-16.385 34.815-57.344 49.153-92.159 32.768-151.553-75.776-258.050-233.471-258.050-415.744 0-253.953 204.8-458.753 458.753-458.753s458.753 204.8 458.753 458.753c2.047 182.274-104.45 339.968-258.050 413.697z" />
<glyph unicode="&#xe91c;" glyph-name="f-powerManage" horiz-adv-x="1011" d="M697.675 764.499l124.126-124.126-540.836-540.836-124.126 124.126 540.836 540.836zM978.024 792.816l-79.412-79.412c-20.898-20.898-54.335-20.898-71.053 0l-50.155 50.155c-20.898 20.898-20.898 54.335 0 71.053l75.233 83.592c-58.514 25.078-133.747 29.257-175.543-8.359-58.514-58.514-37.616-167.184 41.796-250.776s192.261-100.31 250.776-41.796c37.616 41.796 33.437 121.208 8.359 175.543zM158.824-26.384l79.412 79.412c20.898 20.898 29.257 62.694 8.359 83.592l-50.155 50.155c-20.898 20.898-62.694 8.359-83.592-8.359l-79.412-79.412c-33.437 66.873-33.437 133.747 8.359 175.543 58.514 58.514 167.184 37.616 250.776-41.796s100.31-192.261 41.796-250.776c-41.796-37.616-112.849-41.796-175.543-8.359zM932.049-34.743l-129.567 62.694v62.694l66.873 66.873h62.694l66.873-129.567zM480.745 545.028l124.126-124.126-65.019-65.019-124.126 124.126 65.019 65.019zM570.842 322.749l65.019 65.019 230.52-230.52-65.019-65.019-230.52 230.52zM480.653 608.914l-326.008 326.008c-16.718 16.718-41.796 16.718-58.514 0l-71.053-71.053c-16.718-16.718-16.718-41.796 0-58.514l326.008-326.008 129.567 129.567z" />
<glyph unicode="&#xe91d;" glyph-name="f-envMonitor" d="M870.108 734.94c-24.062 26.112-49.129 29.456-70.511 10.774-21.662-18.926-21.109-44.354 1.559-71.177 101.34-119.92 101.843-259.417 1.373-377.459-23.583-27.704-25.154-51.79-4.663-71.324 21.753-20.741 47.567-17.568 72.778 9.979 64.22 70.186 96.25 153.224 98.321 248.206-1.562 96.078-33.586 180.154-98.857 251zM195.086 673.586c22.551 26.798 23.583 52.531 2.866 71.469-20.973 19.17-46.681 16.166-70.511-9.648-65.255-70.68-98.246-154.295-98.842-208.286 0.012-136.092 36.407-228.537 98.709-292.997 24.652-25.516 49.346-28.767 70.665-9.32 20.392 18.601 19.197 45.206-3.203 71.517-100.883 118.496-100.765 257.135 0.316 377.266zM314.304 641.912c-18.67 18.502-46.823 17.066-68.913-4.639-42.663-41.925-63.151-93.429-64.132-165.897 0.16-43.235 23.971-100.359 62.69-137.546 22.713-21.81 49.701-24.507 68.907-6.882 19.826 18.201 19.372 44.523-1.195 68.789-52.503 61.944-52.224 115.071 0.933 179.543 19.26 23.366 19.907 48.596 1.71 66.631zM753.514 635.346c-23.652 23.11-51.718 25.558-71.077 6.204-18.508-18.496-16.948-44.49 4.142-68.925 49.626-57.516 49.731-117.78 0.292-175.055-21.951-25.437-23.029-52.997-2.779-71.177 19.784-17.755 48.072-14.212 71.101 9.955 39.481 41.425 60.011 90.705 59.481 148.296 0.081 58.28-21.822 112.265-61.161 150.701zM625.234 375.755c-29.781-34.195-72.805-55.153-121.338-55.153s-92.656 20.958-121.338 55.153c-25.374-17.65-39.71-40.817-39.71-66.183 0-55.153 72.805-23.165 162.152-23.165s162.152-34.195 162.152 23.165c-2.21 25.365-17.653 48.533-41.919 66.183zM503.899 340.452c78.32 0 142.296 63.976 142.296 142.296s-63.976 143.401-142.296 143.401c-78.32 0-142.302-65.084-142.302-143.401s63.982-142.296 142.302-142.296zM503.899 553.347c39.71 0 70.599-31.988 70.599-70.599s-31.988-70.599-70.599-70.599c-39.71 0-70.599 31.988-70.599 70.599s30.88 70.599 70.599 70.599zM503.899 429.802c28.68 0 51.847 23.165 51.847 51.847 0 28.68-23.165 51.847-51.847 51.847-28.68 0-51.847-23.165-51.847-51.847s23.165-51.847 51.847-51.847zM517.136 508.12c7.722 0 13.237-5.515 13.237-13.237s-5.515-13.237-13.237-13.237-13.237 5.515-13.237 13.237c0 7.725 5.515 13.237 13.237 13.237z" />
<glyph unicode="&#xe91e;" glyph-name="f-messageSent" horiz-adv-x="960" d="M197.911 792.49c0 32.985 26.988 59.973 62.972 59.973h446.8c35.984 0 65.97-26.988 65.97-59.973v-296.867l80.964 56.974v299.866c0 44.98-35.984 80.964-83.962 80.964h-578.741c-44.98 0-80.964-35.984-80.964-77.965v-305.863l83.962-59.973 2.999 302.864zM671.699 750.509h-368.835c-23.989 0-41.981-17.992-41.981-38.983s17.992-38.983 41.981-38.983h371.833c23.989 0 41.981 17.992 41.981 38.983-2.999 20.991-20.991 38.983-44.98 38.983zM671.699 621.567h-368.835c-23.989 0-41.981-17.992-41.981-38.983s17.992-38.983 41.981-38.983h371.833c23.989 0 41.981 17.992 41.981 38.983-2.999 20.991-20.991 38.983-44.98 38.983zM713.68 456.641c-2.999 17.992-20.991 29.987-41.981 29.987h-368.835c-23.989 0-41.981-17.992-41.981-38.983v-2.999l50.977-35.984h335.849l65.97 47.978zM461.793 309.706c11.995-5.997 23.989-5.997 35.984 0l77.965 50.977h-194.913l80.964-50.977zM62.972 540.603c-5.997 2.999-14.993 2.999-20.991 0s-11.995-8.996-11.995-17.992v-473.788c0-8.996 5.997-17.992 14.993-23.989 8.996-2.999 20.991-2.999 29.987 2.999l344.845 230.896c5.997 2.999 8.996 8.996 8.996 17.992 0 5.997-2.999 11.995-8.996 17.992l-356.84 245.89zM104.953 3.844c-5.997-2.999-8.996-11.995-5.997-17.992s8.996-11.995 14.993-11.995h719.677c8.996 0 17.992 5.997 20.991 14.993s0 17.992-8.996 23.989l-350.843 230.896c-8.996 5.997-23.989 5.997-32.985 0l-356.84-239.892zM536.759 294.713c-5.997-2.999-8.996-8.996-8.996-17.992 0-5.997 2.999-11.995 8.996-17.992l362.837-239.892c5.997-2.999 14.993-5.997 20.991 0 5.997 2.999 11.995 11.995 11.995 17.992v485.782c0 8.996-5.997 14.993-11.995 17.992s-14.993 2.999-20.991 0l-362.837-245.89z" />
<glyph unicode="&#xe91f;" glyph-name="f-errorWarning" d="M1011.2 21.333l-452.267 780.8c-21.333 38.4-72.533 38.4-93.867 0l-452.267-780.8c-21.333-38.4 4.267-81.067 46.933-81.067h900.267c46.933 0 72.533 42.667 51.2 81.067zM814.933 25.6h-605.867c-34.133 0-51.2 34.133-38.4 64l302.933 554.667c17.067 29.867 55.467 29.867 72.533 0l302.933-554.667c17.067-29.867 0-64-34.133-64zM512 238.933v0c-21.333 0-42.667 17.067-42.667 42.667v213.333c0 21.333 17.067 42.667 42.667 42.667v0c21.333 0 42.667-17.067 42.667-42.667v-213.333c0-25.6-21.333-42.667-42.667-42.667zM554.667 153.6c0-23.564-19.103-42.667-42.667-42.667s-42.667 19.103-42.667 42.667c0 23.564 19.103 42.667 42.667 42.667s42.667-19.103 42.667-42.667z" />
<glyph unicode="&#xe920;" glyph-name="f-forbid" d="M526.585 917.097c-256.178 0-464.59-208.415-464.59-464.593s208.412-464.593 464.59-464.593 464.59 208.412 464.59 464.593c0 256.178-208.415 464.593-464.59 464.593zM526.585 844.848c94.687 0 181.647-33.719 249.507-89.775l-552.074-552.074c-56.059 67.859-89.775 154.819-89.775 249.507 0 216.339 176.003 392.342 392.342 392.342zM526.585 60.162c-94.687 0-181.647 33.719-249.507 89.778l552.074 552.074c56.059-67.859 89.775-154.819 89.775-249.507 0-216.339-176.003-392.345-392.342-392.345z" />
<glyph unicode="&#xe921;" glyph-name="f-delete" d="M814.236 234.804l-232.697 232.694 232.697 232.697-72.718 72.718-232.697-232.697-232.694 232.697-72.718-72.718 232.697-232.697-232.697-232.694 72.718-72.718 232.697 232.697 232.694-232.697z" />
<glyph unicode="&#xe922;" glyph-name="f-search" d="M569.549 748.062c-98.751 98.751-258.86 98.751-357.611 0s-98.751-258.86 0-357.611 258.86-98.751 357.611 0 98.751 258.86 0 357.611zM262.003 440.516c-71.101 71.101-71.101 186.38 0 257.481s186.38 71.101 257.481 0c71.101-71.101 71.101-186.38 0-257.481s-186.38-71.101-257.481 0zM876.427 175.103l-124.171 124.171c-0.479 0.479-0.99 0.903-1.49 1.349l0.072 0.072-116.365 116.365c-12.96-16.259-27.403-32.482-43.226-48.304s-32.045-30.266-48.304-43.226l116.365-116.365 0.072 0.072c0.443-0.5 0.867-1.011 1.349-1.49l124.171-124.171c12.932-12.932 33.9-12.932 46.829 0l44.701 44.701c12.929 12.929 12.929 33.897-0.003 46.826z" />
<glyph unicode="&#xe923;" glyph-name="f-plus" d="M889.323 518.918h-329.082v329.082h-102.837v-329.082h-329.082v-102.837h329.082v-329.082h102.837v329.082h329.082z" />
<glyph unicode="&#xe924;" glyph-name="f-superLeft" d="M1001.982 771.799l-646.262-373.121v370.547h-46.314v-744.57h46.314v370.547l646.262-373.121z" />
<glyph unicode="&#xe925;" glyph-name="f-circleRight" d="M509.87 923.937c-262.828 0-475.934-213.105-475.934-475.94 0-262.828 213.105-475.934 475.934-475.934 262.834 0 475.94 213.105 475.94 475.934-0.001 262.834-213.106 475.94-475.94 475.94zM430.103 214.344v431.086l257.857-215.833-257.857-215.253z" />
<glyph unicode="&#xe926;" glyph-name="f-circleDown" d="M512 896c-247.4 0-448-200.6-448-448s200.6-448 448-448 448 200.6 448 448-200.6 448-448 448zM749.5 550l-222.7-286.8c-7.4-9.6-21.9-9.6-29.4 0l-222.9 286.8c-9.5 12.2-0.8 30 14.7 30h445.6c15.5 0 24.2-17.8 14.7-30z" />
<glyph unicode="&#xe927;" glyph-name="f-middlewareMonitor" horiz-adv-x="980" d="M875.693 151.642v264.107c0 34.751-27.802 63.71-63.71 63.71h-271.058v104.255h113.519c26.641 0 48.651 22.010 48.651 48.651v180.705c0 26.641-22.010 48.651-48.651 48.651h-113.519v47.494c0 25.483-22.010 45.175-46.336 45.175h-18.534c-25.483 0-49.809-20.85-49.809-45.175v-47.494h-103.094c-26.641 0-48.651-22.010-48.651-48.651v-180.705c0-26.641 22.010-48.651 48.651-48.651h101.936v-104.255h-260.631c-34.751 0-63.71-27.802-63.71-63.71v-265.264c0-34.751 27.802-63.71 63.71-63.71h260.631v-48.651c0-25.483 24.326-45.175 49.809-45.175h19.692c25.483 0 46.336 20.85 46.336 45.175v48.651h272.216c34.751 0 63.71 28.959 62.552 64.868zM540.925 664.8h-170.277c-15.058 0-26.641 11.583-26.641 26.641v72.977c0 15.058 11.583 26.641 26.641 26.641h223.565c15.058 0 26.641-11.583 26.641-26.641v-72.977h1.158c0-15.058-11.583-26.641-26.641-26.641h-54.446z" />
<glyph unicode="&#xe928;" glyph-name="f-tips" d="M522.732 879.259c-256.178 0-464.59-208.415-464.59-464.593s208.412-464.593 464.59-464.593 464.59 208.412 464.59 464.593c0 256.178-208.415 464.593-464.59 464.593zM539.62 126.23c-10.193-9.784-22.388-14.678-36.591-14.678-13.673 0-25.603 4.829-35.79 14.48-10.193 9.648-15.281 21.846-15.281 36.591 0 14.477 5.027 26.602 15.079 36.392 10.052 9.781 22.048 14.675 35.992 14.675 14.206 0 26.401-4.961 36.591-14.877 10.184-9.919 15.281-21.985 15.281-36.187 0-14.477-5.097-26.611-15.281-36.395zM680.36 520.101c-14.477-25.471-38.74-52.275-72.784-80.421-27.343-22.788-45.709-40.887-55.089-54.286-9.386-13.408-14.076-32.172-14.076-56.297v-31.365h-69.967v34.58c0 28.15 5.629 52.341 16.888 72.583 11.259 20.239 31.365 41.618 60.318 64.135 28.412 21.979 48.719 42.554 60.917 61.724 12.198 19.164 18.297 41.215 18.297 66.146 0 26.539-9.452 48.385-28.348 65.544-18.899 17.153-44.574 25.735-77.005 25.735-51.209 0-96.244-19.441-135.11-58.307v82.032c45.035 28.15 93.824 42.223 146.372 42.223 52.272 0 93.89-13.742 124.857-41.218 30.961-27.481 46.444-63.47 46.444-107.966 0-31.097-7.24-59.376-21.714-84.844z" />
<glyph unicode="&#xe92b;" glyph-name="f-resourceMonitor" horiz-adv-x="1069" d="M77.802 716.493h819.2c14.507 0 25.6 11.093 25.6 25.6v17.066c0 14.507-11.093 25.6-25.6 25.6h-819.2c-14.507 0-25.6-11.093-25.6-25.6v-17.066c0-14.507 11.093-25.6 25.6-25.6zM777.537 534.731c-104.107 0-194.559-60.586-238.934-149.334 44.373-88.748 134.827-149.334 238.934-149.334s194.559 60.586 238.934 149.334c-44.373 88.748-134.827 149.334-238.934 149.334zM733.164 476.704c23.893 0 44.373-19.627 44.373-44.373 0-24.748-20.479-44.373-44.373-44.373s-44.373 20.479-44.373 44.373 20.479 44.373 44.373 44.373zM895.296 315.427c-34.986-22.186-75.948-34.134-117.759-34.134s-82.773 11.948-117.759 34.134c-28.159 17.921-52.052 41.814-69.973 69.973 17.921 28.159 41.814 52.052 69.973 69.973 1.707 0.852 3.414 2.559 5.121 3.414-4.266-12.8-6.827-26.452-6.827-40.959 0-65.707 53.759-119.466 119.466-119.466s119.466 53.759 119.466 119.466c0 14.507-2.559 28.159-6.827 40.959 1.707-0.855 3.417-2.562 5.121-3.414 28.159-17.921 52.055-41.814 69.973-69.973-17.921-28.159-41.814-52.052-69.973-69.973zM127.296 271.907c-14.507 0-25.6 11.093-25.6 25.6v308.904c0 14.507 11.093 25.6 25.6 25.6h722.773c14.507 0 25.6-11.093 25.6-25.6v-52.052c16.214-5.121 32.427-11.948 47.786-19.627v122.027c0 14.507-11.090 25.6-25.597 25.6h-819.203c-14.507 0-25.6-11.093-25.6-25.6v-409.6c0-14.507 11.093-25.6 25.6-25.6h622.937c-38.4 10.241-74.241 27.307-104.959 50.348h-469.337z" />
<glyph unicode="&#xe92c;" glyph-name="f-overview" d="M59.733 874.667v-332.8c0-23.893 18.773-42.667 42.667-42.667h332.8c23.893 0 42.667 18.773 42.667 42.667v332.8c0 23.893-18.773 42.667-42.667 42.667h-332.8c-23.893 0-42.667-18.773-42.667-42.667zM375.467 576h-213.333c-14.507 0-25.6 11.093-25.6 25.6v213.333c0 14.507 11.093 25.6 25.6 25.6h213.333c14.507 0 25.6-11.093 25.6-25.6v-213.333c0-14.507-11.093-25.6-25.6-25.6zM59.733 405.333v-332.8c0-23.893 18.773-42.667 42.667-42.667h332.8c23.893 0 42.667 18.773 42.667 42.667v332.8c0 23.893-18.773 42.667-42.667 42.667h-332.8c-23.893 0-42.667-18.773-42.667-42.667zM375.467 106.667h-213.333c-14.507 0-25.6 11.093-25.6 25.6v213.333c0 14.507 11.093 25.6 25.6 25.6h213.333c14.507 0 25.6-11.093 25.6-25.6v-213.333c0-14.507-11.093-25.6-25.6-25.6zM529.067 405.333v-332.8c0-23.893 18.773-42.667 42.667-42.667h332.8c23.893 0 42.667 18.773 42.667 42.667v332.8c0 23.893-18.773 42.667-42.667 42.667h-332.8c-23.893 0-42.667-18.773-42.667-42.667zM844.8 106.667h-213.333c-14.507 0-25.6 11.093-25.6 25.6v213.333c0 14.507 11.093 25.6 25.6 25.6h213.333c14.507 0 25.6-11.093 25.6-25.6v-213.333c0-14.507-11.093-25.6-25.6-25.6zM529.067 874.667v-332.8c0-23.893 18.773-42.667 42.667-42.667h332.8c23.893 0 42.667 18.773 42.667 42.667v332.8c0 23.893-18.773 42.667-42.667 42.667h-332.8c-23.893 0-42.667-18.773-42.667-42.667zM844.8 576h-213.333c-14.507 0-25.6 11.093-25.6 25.6v213.333c0 14.507 11.093 25.6 25.6 25.6h213.333c14.507 0 25.6-11.093 25.6-25.6v-213.333c0-14.507-11.093-25.6-25.6-25.6z" />
<glyph unicode="&#xe92d;" glyph-name="f-pen" d="M897.969 672.492l53.169 53.169c35.446 35.446 35.446 92.554 0 126.031l-39.385 39.385c-35.446 35.446-92.554 35.446-126.031 0l-53.169-53.169c-3.938-3.938-3.938-11.815 0-15.754l151.631-151.631c1.969-1.969 9.846-1.969 13.785 1.969zM254.031 75.815l92.554 45.292-167.385 167.385-43.323-94.523zM128 174.277l-72.862-161.477c-7.877-17.723 3.938-31.508 21.662-23.631l157.538 76.8-106.338 108.308zM821.169 705.969l-57.108 57.108-513.969-515.938 55.138-55.138zM750.277 776.862l-39.385 39.385-515.938-515.938 41.354-39.385zM319.015 178.215l41.354-41.354 513.969 515.938-39.385 39.385z" />
<glyph unicode="&#xe92e;" glyph-name="f-edit" d="M141.89 630.858l-111.127 111.127 186.78 186.78 111.127-111.127-186.78-186.78zM319.883 451.922l186.78 186.78-118.975 118.975-186.78-186.78 118.975-118.975zM702.549 442.819l-186.78-186.78 135.3-135.297 187.096 186.78-135.616 135.297zM782.597 66.432l167.631-57.133-57.133 167.631-110.498-110.498zM684.656 460.713l-524.556-524.556-160.099 160.099 863.901 863.588 160.099-160.099-339.344-339.031zM719.5 784.048l92.291-92.291 22.915 23.231-92.291 92.291-22.915-23.231zM258.041 137.693l-92.291 92.291-23.231-23.231 92.291-92.291 23.231 23.231zM373.563 253.212l-92.291 92.291-23.231-23.231 92.291-92.291 23.231 23.231zM488.769 368.735l-92.291 92.291-23.231-23.231 92.291-92.291 23.231 23.231zM604.291 483.944l-92.291 92.291-23.231-23.231 92.291-92.291 23.231 23.231zM604.291 668.526l92.291-92.291 23.231 23.231-92.291 92.291-23.231-23.231z" />
<glyph unicode="&#xe92f;" glyph-name="f-print" d="M209.252-32.835h454.122l191.443 191.443v258.226h-66.783v-204.8h-195.896v-178.087h-311.652v382.887h-71.235v-449.67zM854.817 488.070v422.957h-645.565v-422.957h66.783v356.174h507.548v-351.722h71.235zM854.817 701.774h182.539v-489.739h-182.539v31.165h66.783v244.87h-66.783zM276.035 701.774h507.548v-209.252h-507.548v209.252zM4.452 701.774h204.8v-213.704h-66.783v-244.87h66.783v173.635-204.8h-204.8z" />
<glyph unicode="&#xe931;" glyph-name="f-calendar" d="M843.924 876.948v-83.052h-10.985v166.105h-99.624v-83.052h-442.822v-83.052h-10.985v166.105h-99.624v-83.052h-138.356v-940.948h940.948v940.948c-0.003 0-138.551 0-138.551 0zM885.545 627.98v-586.575h-747.283v586.575h747.283zM235.189 572.484h138.359v-138.359h-138.359v138.359zM442.726 572.484h138.359v-138.359h-138.359v138.359zM650.262 572.484h138.359v-138.359h-138.359v138.359zM235.189 378.822h138.359v-138.359h-138.359v138.359zM442.726 378.822h138.359v-138.359h-138.359v138.359zM650.262 378.822h138.359v-138.359h-138.359v138.359z" />
<glyph unicode="&#xe932;" glyph-name="f-updateLogo" d="M0 86.969h1024v-64h-1024v64zM1024 214.969v-64h-1024v64l128 256h256v-128h256v128h256l128-256zM224 662.969l288 288 288-288h-224v-256h-128v256h-224z" />
<glyph unicode="&#xe933;" glyph-name="f-set" d="M839.080 553.738c-3.492 3.751-7.758 5.819-13.059 6.337l-95.807 9.437c-6.337 22.626-15.515 44.607-27.668 65.68l60.896 74.344c3.751 4.266 5.431 8.793 5.172 13.836s-2.198 9.308-5.948 13.059l-58.569 58.569c-3.751 3.751-8.405 5.56-14.221 5.56-4.783 0-8.923-1.55-12.671-4.783l-74.344-60.896c-21.075 12.153-43.054 21.334-65.68 27.668l-9.437 95.807c-0.518 5.301-2.586 9.567-6.337 13.059s-8.146 5.172-13.447 5.172h-82.231c-5.301 0-9.696-1.68-13.447-5.172s-5.819-7.758-6.337-13.059l-9.437-95.807c-22.626-6.337-44.607-15.515-65.68-27.668l-74.344 60.893c-4.266 3.104-8.405 4.783-12.671 4.783-5.819 0-10.602-1.809-14.221-5.56l-58.569-58.569c-3.751-3.751-5.69-8.017-5.948-13.059s1.421-9.567 5.172-13.836l60.896-74.344c-12.153-21.075-21.334-43.054-27.668-65.68l-95.807-9.437c-5.301-0.518-9.567-2.586-13.059-6.337s-5.172-8.146-5.172-13.447v-82.231c0-5.301 1.68-9.696 5.172-13.447s7.758-5.819 13.059-6.337l95.807-9.437c6.337-22.626 15.515-44.607 27.668-65.68l-60.896-74.344c-3.751-4.266-5.431-8.793-5.172-13.836s2.198-9.308 5.948-13.059l58.569-58.569c3.751-3.751 8.405-5.56 14.221-5.56 4.266 0 8.405 1.55 12.671 4.783l74.344 60.896c21.075-12.153 43.054-21.334 65.68-27.668l9.437-95.807c0.518-5.301 2.586-9.567 6.337-13.059s8.146-5.172 13.447-5.172h82.231c5.301 0 9.696 1.68 13.447 5.172s5.819 7.758 6.337 13.059l9.437 95.807c22.626 6.337 44.607 15.515 65.68 27.668l74.344-60.896c3.751-3.104 7.887-4.783 12.671-4.783 5.819 0 10.602 1.809 14.221 5.56l58.569 58.569c3.751 3.751 5.69 8.017 5.948 13.059s-1.421 9.567-5.172 13.836l-60.896 74.344c12.153 21.075 21.334 43.054 27.668 65.68l95.807 9.437c5.301 0.518 9.567 2.586 13.059 6.337s5.172 8.146 5.172 13.447v82.231c0 5.304-1.683 9.829-5.172 13.45zM569.763 455.604c-5.819-13.706-13.706-25.6-23.791-35.555s-21.849-17.972-35.555-23.791c-13.706-5.819-28.186-8.664-43.572-8.664s-29.866 2.845-43.572 8.664c-13.706 5.819-25.6 13.706-35.555 23.791s-17.972 21.849-23.791 35.555c-5.819 13.706-8.664 28.186-8.664 43.572s2.845 29.866 8.664 43.572c5.819 13.706 13.706 25.6 23.791 35.555s21.849 17.972 35.555 23.791c13.706 5.819 28.186 8.664 43.572 8.664s29.866-2.845 43.572-8.664c13.706-5.819 25.6-13.706 35.555-23.791 10.085-10.085 17.972-21.849 23.791-35.555s8.664-28.186 8.664-43.572-2.974-29.866-8.664-43.572z" />
<glyph unicode="&#xe934;" glyph-name="f-phone" d="M666.070 894.239h-355.112c-31.941 0-57.306-25.365-57.306-57.306v-824.837c0-31.941 25.365-57.306 57.306-57.306h355.112c31.941 0 57.306 25.365 57.306 57.306v824.837c0 31.941-25.365 57.306-57.306 57.306zM450.936 837.872h75.156v-9.394h-75.156v9.394zM488.514-17.028c-15.971 0-28.183 12.213-28.183 28.183s12.213 28.183 28.183 28.183 28.183-12.213 28.183-28.183-12.213-28.183-28.183-28.183zM695.193 67.523h-413.358v713.982h413.358v-713.982z" />
<glyph unicode="&#xe935;" glyph-name="f-mail" d="M962.11 671.93c0 34.884-16.879 51.763-51.763 51.763h-796.695c-34.884 0-51.763-16.879-51.763-51.763v-459.112c0-34.884 16.879-51.763 51.763-51.763h796.695c34.884 0 51.763 16.879 51.763 51.763v459.112zM821.451 656.176l-303.824-180.044-315.077 180.044h618.901zM894.593 263.455c0-19.13-10.127-34.884-28.132-34.884h-697.67c-19.13 0-39.385 15.754-39.385 34.884v360.088c0 19.13 363.464-213.802 382.593-213.802s382.593 231.807 382.593 213.802v-360.088z" />
<glyph unicode="&#xe943;" glyph-name="f-save" horiz-adv-x="1036" d="M971.857 932.828h-913.945c-18.619 0-33.625-15.005-33.625-33.625v-913.947c0-18.617 15.005-33.625 33.625-33.625h913.947c18.617 0 33.625 15.005 33.625 33.625v913.947c-0.003 18.343-15.285 33.625-33.628 33.625zM212.135 882.254h605.501v-283.161h-605.501v283.161zM847.090 23.049h-664.412v419.044h664.412v-419.044zM646.738 840.293h84.199v-201.74h-84.199v201.74zM785.956 338.444h-542.42v33.625h542.423l-0.003-33.625zM785.956 220.623h-542.42v33.625h542.423l-0.003-33.625zM785.956 107.247h-542.42v33.625h542.423l-0.003-33.625z" />
<glyph unicode="&#xe954;" glyph-name="f-bigdata" horiz-adv-x="1093" d="M71.023 471.159h938.666c25.6 0 42.666-17.066 42.666-42.666v0c0-25.6-17.066-42.666-42.666-42.666h-938.666c-25.6 0-42.666 17.066-42.666 42.666v0c0 25.6 17.066 42.666 42.666 42.666zM241.692 684.493h85.334c25.6 0 42.666-17.066 42.666-42.666v-128h-170.669v128c0 25.6 17.069 42.666 42.669 42.666zM199.023 343.159h170.666v-170.666c0-25.6-17.066-42.666-42.666-42.666h-85.331c-25.6 0-42.666 17.066-42.666 42.666v170.666zM199.023 471.159h170.666v-85.334h-170.666v85.334zM497.692 855.159h85.334c25.6 0 42.666-17.066 42.666-42.666v-298.666h-170.666v298.666c-0.003 25.6 17.066 42.666 42.666 42.666zM455.023 471.159h170.666v-85.334h-170.666v85.334zM455.023 343.159h170.666v-298.666c0-25.6-17.066-42.666-42.666-42.666h-85.334c-25.6 0-42.666 17.066-42.666 42.666v298.666zM753.692 727.159h85.334c25.6 0 42.666-17.066 42.666-42.666v-170.666h-170.666v170.666c-0.003 25.6 17.066 42.666 42.666 42.666zM711.023 471.159h170.666v-85.334h-170.666v85.334zM711.023 343.159h170.666v-213.334c0-25.6-17.066-42.666-42.666-42.666h-85.334c-25.6 0-42.666 17.066-42.666 42.666v213.334z" />
<glyph unicode="&#xe955;" glyph-name="f-warningTrend" horiz-adv-x="988" d="M19.11 288.745h955.923v-89.618h-955.923v89.618zM317.836 632.281l-298.725-0.418v-313.247h298.725zM347.709 866.795h298.725v-548.162h-298.725v548.162zM676.308 736.909h298.725v-418.293h-298.725v418.293z" />
<glyph unicode="&#xe956;" glyph-name="f-serviceApply" horiz-adv-x="1048" d="M529.297 873.514c-249.081 0-449.73-200.649-449.73-453.189s200.649-453.189 453.189-453.189c249.081 0 453.189 200.649 453.189 453.189s-204.108 453.189-456.649 453.189zM529.297 50.162c-207.568 0-373.622 166.054-373.622 373.622s166.054 373.622 373.622 373.622c207.568 0 373.622-166.054 373.622-373.622s-166.054-373.622-373.622-373.622zM605.405 634.811c0-38.212-30.977-69.189-69.189-69.189s-69.189 30.977-69.189 69.189c0 38.212 30.977 69.189 69.189 69.189s69.189-30.977 69.189-69.189zM470.486 517.189h121.081v-363.243h-121.081v363.243zM601.946 520.649l-72.649-41.514-72.649 41.514c-6.919 0-10.378 3.459-10.378 10.378v6.919c0 6.919 3.459 10.378 10.378 10.378h145.297c6.919 0 10.378-3.459 10.378-10.378v-6.919c0-6.919-3.459-10.378-10.378-10.378zM598.486 133.189h-138.378c-10.378 0-17.297 6.919-17.297 17.297v0c0 10.378 6.919 17.297 17.297 17.297h138.378c10.378 0 17.297-6.919 17.297-17.297v0c3.459-6.919-6.919-17.297-17.297-17.297z" />
<glyph unicode="&#xe98c;" glyph-name="f-database" d="M870.4 695.467c0-61.44-152.747-102.4-341.333-102.4s-341.333 40.96-341.333 102.4 152.747 119.467 341.333 119.467 341.333-58.027 341.333-119.467zM187.733 789.333h682.667v-95.573h-682.667v95.573zM870.4 789.333c0-61.267-152.82-110.933-341.333-110.933s-341.333 49.667-341.333 110.933c0 61.267 152.82 110.933 341.333 110.933s341.333-49.667 341.333-110.933zM529.067 524.8c-188.587 0-341.333 49.493-341.333 110.933v-170.667c3.413-59.733 154.453-100.693 341.333-100.693s337.92 40.96 341.333 100.693v0 170.667c0-61.44-152.747-110.933-341.333-110.933zM529.067 302.933c-188.587 0-341.333 49.493-341.333 110.933v-170.667c3.413-59.733 154.453-100.693 341.333-100.693s337.92 40.96 341.333 100.693v0 170.667c0-61.44-152.747-110.933-341.333-110.933z" />
<glyph unicode="&#xe98d;" glyph-name="f-network" horiz-adv-x="1087" d="M584.796 904.242c-221.94 0-402.502-180.562-402.502-402.502s180.562-402.502 402.502-402.502 402.502 180.559 402.502 402.502-180.562 402.502-402.502 402.502zM932.888 493.332h-136.46c0.84 41.828-2.76 84.311-11.087 129.423h125.417v1.405c14.358-38.104 22.238-79.357 22.238-122.421 0-2.811-0.042-5.612-0.109-8.407zM441.491 622.755h116.154v-129.423h-128.12c-0.926 41.707 2.967 84.049 11.966 129.423zM742.041 493.332h-130.094v129.423h118.131c8.998-45.374 12.892-87.716 11.962-129.423zM738.118 439.031c-5.603-46.121-16.939-92.776-33.609-143.254h-92.562v143.254h126.171zM611.947 677.057v171.833c16.287-1.262 32.255-3.67 47.843-7.104 24.992-60.958 44.039-114.976 57.496-164.725l-105.339-0.003zM557.645 677.057h-103.361c13.492 49.881 32.603 104.048 57.691 165.201 14.898 3.181 30.141 5.427 45.674 6.631v-171.833h-0.003zM557.645 439.031v-143.254h-90.588c-16.671 50.478-28.007 97.133-33.609 143.254h124.197zM410.095 295.78h-105.869c-30.677 41.678-52.308 90.396-61.961 143.254h136.469c5.194-46.562 15.783-93.396 31.361-143.254zM428.529 241.478c7.267-19.954 15.236-40.496 23.89-61.77-36.382 15.010-69.679 36.012-98.666 61.77h74.776zM486.411 241.478h71.234v-86.886c-12.889 1-25.576 2.725-38.040 5.095-12.25 28.681-23.334 55.825-33.194 81.791zM611.947 241.478h73.208c-9.813-25.841-20.839-52.851-33.022-81.379-13.151-2.587-26.557-4.45-40.186-5.507v86.886zM743.037 241.478h72.802c-28.358-25.202-60.834-45.862-96.296-60.802 8.497 20.928 16.335 41.151 23.493 60.802zM761.471 295.78c15.578 49.858 26.17 96.692 31.361 143.254h134.495c-9.653-52.858-31.284-101.576-61.961-143.254h-103.895zM885.534 677.057h-112.177c-11.196 44.032-26.553 91-46.306 142.478 66.468-29.869 121.923-79.999 158.484-142.478zM444.912 820.573c-19.948-51.887-35.43-99.187-46.703-143.516h-114.152c36.995 63.217 93.338 113.778 160.854 143.516zM258.833 624.158v-1.402h127.395c-8.327-45.112-11.927-87.592-11.087-129.423h-138.437c-0.067 2.795-0.105 5.596-0.105 8.407-0.003 43.064 7.877 84.314 22.235 122.418z" />
<glyph unicode="&#xe98f;" glyph-name="f-apply" horiz-adv-x="988" d="M706.057 455.4c-24.611 0-49.219 3.517-73.83 10.548v-42.188c0-21.094-14.063-35.157-35.157-35.157h-390.252c-21.094 0-35.157 14.063-35.157 35.157v123.053c0 21.094 14.063 35.157 35.157 35.157h277.745c-24.611 38.674-35.157 84.379-35.157 130.084 0 10.548 0 21.094 3.517 31.642h-351.578v10.548h351.575c0 3.517 0 3.517 0 7.031h-355.092v14.063h358.606c0 3.517 0 3.517 0 7.031h-358.606v10.548h362.123c0 3.517 0 3.517 3.517 7.031h-365.64v10.548h372.672c0 3.517 0 3.517 3.517 7.031h-376.189v14.063h379.703c0 3.517 3.517 3.517 3.517 7.031h-383.22v10.548h390.249c10.548 14.063 21.094 28.125 31.642 42.188h-393.763c-38.674 0-70.316-31.642-70.316-70.316v-801.594c0-38.674 31.642-70.316 70.316-70.316h551.975c38.674 0 70.316 31.642 70.316 70.316v439.465c-14.066 0-28.128-3.514-42.191-3.514zM716.603 803.461c-52.736 0-98.441-45.705-98.441-98.441s42.188-94.924 94.924-94.924 94.924 42.188 94.924 94.924-38.671 98.441-91.407 98.441zM716.603 634.703c-38.674 0-70.316 31.642-70.316 70.316s31.642 70.316 70.316 70.316c38.674 0 70.316-31.642 70.316-70.316s-31.642-70.316-70.316-70.316zM713.088 937.059c-123.053 0-225.008-101.956-225.008-225.008s101.956-225.008 225.008-225.008 225.008 101.956 225.008 225.008-101.956 225.008-225.008 225.008zM716.603 599.547c-59.768 0-108.99 49.219-108.99 108.99s49.219 108.99 108.99 108.99 108.99-49.219 108.99-108.99c-3.517-59.771-49.222-108.99-108.99-108.99z" />
<glyph unicode="&#xe990;" glyph-name="f-monthWarning" d="M1011.23 47.509l-452.266 780.8c-21.334 38.4-72.534 38.4-93.866 0l-452.269-780.8c-21.334-38.4 4.266-81.066 46.934-81.066h900.266c46.934 0 72.534 42.666 51.2 81.066zM814.964 51.778h-605.866c-34.134 0-51.2 34.134-38.4 64l302.931 554.666c17.066 29.866 55.466 29.866 72.534 0l302.934-554.666c17.066-29.869 0-64-34.134-64zM473.513 467.64l-57.422-169.922 66.73-0.446-66.73-176.163 171.59 205.706h-61.787l82.017 140.824z" />
</font>
</defs>
</svg>
